HIERARCHY
ROOT Hips
{
 OFFSET 0.000000 0.000000 0.000000
 CHANNELS 6 Xposition Yposition Zposition Yrotation Xrotation Zrotation
 JOINT Chest
 {
  OFFSET 0.000000 9.581000 -0.001100
  CHANNELS 3 Yrotation Xrotation Zrotation
  JOINT Chest2
  {
   OFFSET 0.000000 9.561100 0.002200
   CHANNELS 3 Yrotation Xrotation Zrotation
   JOINT Chest3
   {
    OFFSET 0.000000 9.521100 0.000000
    CHANNELS 3 Yrotation Xrotation Zrotation
    JOINT Chest4
    {
     OFFSET 0.000000 9.511400 0.000000
     CHANNELS 3 Yrotation Xrotation Zrotation
     JOINT Neck
     {
      OFFSET 0.000000 14.375100 0.000000
      CHANNELS 3 Yrotation Xrotation Zrotation
      JOINT Head
      {
       OFFSET 0.000000 8.901200 0.004600
       CHANNELS 3 Yrotation Xrotation Zrotation
       End Site
       {
        OFFSET 0.000000 16.962200 0.002400
       }
      }
     }
     JOINT RightCollar
     {
      OFFSET -2.920100 9.518800 0.000000
      CHANNELS 3 Yrotation Xrotation Zrotation
      JOINT RightShoulder
      {
       OFFSET -13.664500 0.000000 0.000000
       CHANNELS 3 Yrotation Xrotation Zrotation
       JOINT RightElbow
       {
        OFFSET 0.000000 -29.999200 0.000000
        CHANNELS 3 Yrotation Xrotation Zrotation
        JOINT RightWrist
        {
         OFFSET 0.000000 -24.253600 0.000000
         CHANNELS 3 Yrotation Xrotation Zrotation
         End Site
         {
          OFFSET 0.000000 -17.918900 0.000000
         }
        }
       }
      }
     }
     JOINT LeftCollar
     {
      OFFSET 2.920100 9.518800 0.000000
      CHANNELS 3 Yrotation Xrotation Zrotation
      JOINT LeftShoulder
      {
       OFFSET 13.664500 0.000000 0.000000
       CHANNELS 3 Yrotation Xrotation Zrotation
       JOINT LeftElbow
       {
        OFFSET 0.000000 -29.999200 0.000000
        CHANNELS 3 Yrotation Xrotation Zrotation
        JOINT LeftWrist
        {
         OFFSET 0.000000 -24.253600 0.000000
         CHANNELS 3 Yrotation Xrotation Zrotation
         End Site
         {
          OFFSET 0.000000 -17.918900 0.000000
         }
        }
       }
      }
     }
    }
   }
  }
 }
 JOINT RightHip
 {
  OFFSET -7.797300 0.005300 0.000500
  CHANNELS 3 Yrotation Xrotation Zrotation
  JOINT RightKnee
  {
   OFFSET 0.000000 -40.663400 -0.000500
   CHANNELS 3 Yrotation Xrotation Zrotation
   JOINT RightAnkle
   {
    OFFSET 0.000000 -39.523700 -0.000900
    CHANNELS 3 Yrotation Xrotation Zrotation
    JOINT RightToe
    {
     OFFSET 0.000000 -6.418000 14.485300
     CHANNELS 3 Yrotation Xrotation Zrotation
     End Site
     {
      OFFSET 0.000000 -1.465200 6.326400
     }
    }
   }
  }
 }
 JOINT LeftHip
 {
  OFFSET 7.797300 0.005300 0.000500
  CHANNELS 3 Yrotation Xrotation Zrotation
  JOINT LeftKnee
  {
   OFFSET 0.000000 -40.663400 -0.000500
   CHANNELS 3 Yrotation Xrotation Zrotation
   JOINT LeftAnkle
   {
    OFFSET 0.000000 -39.523700 -0.000900
    CHANNELS 3 Yrotation Xrotation Zrotation
    JOINT LeftToe
    {
     OFFSET 0.000000 -6.418000 14.485300
     CHANNELS 3 Yrotation Xrotation Zrotation
     End Site
     {
      OFFSET 0.000000 -1.465200 6.326400
     }
    }
   }
  }
 }
}
MOTION
Frames: 8
Frame Time: 0.008333
0.000000 86.422400 0.000000 0.000000 -5.767877 0.000000 0.000000 11.653817 0.000000 0.000000 -5.885947 0.000000 0.000000 -0.000000 0.000000 0.000000 -0.000000 0.000000 0.000000 12.528835 0.000000 0.000000 0.711642 0.000000 0.000000 -0.000000 0.000000 0.000000 0.000000 -90.000000 0.000000 -2.309062 0.000000 0.000000 2.309062 0.000000 0.000000 -0.000000 0.000000 0.000000 -0.000000 90.000000 0.000000 -2.309062 0.000000 0.000000 2.309062 0.000000 0.000000 8.520406 0.000000 0.000000 1.905762 0.000000 -0.000000 -4.658285 0.000000 0.000000 -0.000000 0.000000 0.000000 8.520406 0.000000 0.000000 1.905762 0.000000 -0.000000 -4.658285 0.000000 0.000000 -0.000000 0.000000
-23.196607 126.424870 58.758201 -174.612137 -28.110958 -1.674486 -1.127057 21.161958 -0.063753 -0.159204 2.783034 0.026627 -0.239846 4.550439 0.026061 -0.952023 18.069170 -0.028723 0.616470 16.841360 0.704046 0.497261 -8.058801 0.570887 -7.588105 -4.443356 -0.363819 1.187218 -5.458365 -1.679404 95.673438 -65.855901 -67.858520 2.295889 10.882561 -33.085845 -4.671804 -4.507995 1.512563 -0.236865 -10.324991 5.165495 -74.450091 -68.768822 58.324284 -31.683226 13.022509 13.656009 -8.724774 -59.416493 4.157090 -37.683956 67.650018 -36.210513 25.713632 40.509558 15.208233 -0.004080 -0.014955 -0.001807 -11.969278 -48.694834 -5.377023 15.504861 70.514019 6.857222 0.601356 8.106898 5.562417 0.001576 0.001938 0.000698
-23.197615 126.424579 58.757923 -174.595902 -28.106663 -1.678114 -1.128764 21.168680 -0.071241 -0.159329 2.775578 0.026280 -0.238976 4.550854 0.024680 -0.944990 18.084949 -0.033105 0.609385 16.811591 0.715673 0.523494 -8.126446 0.503420 -7.593122 -4.514879 -0.317250 1.174460 -5.408911 -1.696308 95.636055 -65.852457 -67.806483 2.301128 10.883503 -33.074898 -4.732244 -4.605312 1.511430 -0.226809 -10.265302 5.195379 -74.360068 -68.745049 58.245746 -31.687673 13.011735 13.664847 -8.711617 -59.419572 4.126595 -37.619160 67.684415 -36.143937 25.735160 40.469046 15.206085 -0.003538 -0.013486 -0.001567 -11.978094 -48.699659 -5.382841 15.525751 70.512083 6.878945 0.593816 8.107136 5.561843 0.002060 0.002646 0.000913
-23.198564 126.424478 58.757029 -174.593700 -28.104825 -1.676846 -1.116317 21.183619 -0.074857 -0.144519 2.792793 0.016233 -0.235552 4.557779 0.022913 -0.959040 18.057662 -0.016602 0.631080 16.760805 0.641209 0.519486 -8.157581 0.510679 -7.580734 -4.633251 -0.276777 1.135989 -5.342921 -1.707829 95.507423 -65.847332 -67.633621 2.286466 10.868057 -33.064440 -4.773324 -4.656742 1.519562 -0.252609 -10.276954 5.205922 -74.170766 -68.719148 58.093919 -31.695461 12.996215 13.657660 -8.699051 -59.412244 4.110431 -37.550926 67.708899 -36.073181 25.681068 40.428190 15.180977 -0.011570 -0.013703 -0.005125 -11.966422 -48.701386 -5.392499 15.524204 70.513114 6.884272 0.590509 8.104608 5.562124 0.003188 0.001897 0.001413
-23.198351 126.424350 58.755834 -174.579913 -28.102341 -1.689260 -1.118414 21.191235 -0.068325 -0.135524 2.805487 0.013759 -0.239027 4.555204 0.024130 -0.959410 18.054497 -0.016994 0.648377 16.729498 0.587441 0.522594 -8.201146 0.485920 -7.567817 -4.733724 -0.248000 1.099628 -5.290757 -1.714616 95.371598 -65.851527 -67.457453 2.278136 10.832918 -33.081082 -4.822686 -4.714370 1.536111 -0.250947 -10.268315 5.211011 -74.009687 -68.688079 57.943309 -31.706697 12.968038 13.663555 -8.735005 -59.401743 4.129711 -37.480255 67.737141 -36.001399 25.705868 40.380969 15.146384 0.001423 -0.005567 0.000630 -11.967571 -48.704738 -5.397543 15.517671 70.517549 6.892089 0.593042 8.101543 5.561443 0.002406 0.001365 0.001066
-23.197598 126.423442 58.755845 -174.574161 -28.090445 -1.701509 -1.112765 21.190301 -0.057332 -0.124589 2.817935 0.011349 -0.252234 4.538938 0.028322 -0.941277 18.080768 -0.022198 0.649575 16.693146 0.544936 0.526850 -8.241900 0.439686 -7.566531 -4.839582 -0.224384 1.061651 -5.257497 -1.712042 95.219295 -65.865978 -67.262587 2.269285 10.790589 -33.104391 -4.891726 -4.795138 1.565013 -0.255340 -10.264972 5.217260 -73.704132 -68.655403 57.632403 -31.708178 12.944750 13.715978 -8.800913 -59.389537 4.197005 -37.443226 67.719402 -35.985610 25.732960 40.350815 15.125269 0.006325 -0.001035 0.002802 -11.981878 -48.719364 -5.382906 15.510037 70.525327 6.890609 0.596840 8.099344 5.559503 0.001374 0.001260 0.000609
-23.197736 126.422382 58.755899 -174.566670 -28.078240 -1.709966 -1.098262 21.198333 -0.050359 -0.123966 2.822746 0.013181 -0.248742 4.539679 0.028428 -0.900620 18.129232 -0.015194 0.609631 16.626450 0.500555 0.524223 -8.277311 0.385517 -7.613369 -4.948785 -0.195108 1.041473 -5.267979 -1.706114 94.975045 -65.909145 -66.963954 2.286531 10.723914 -33.158897 -4.976509 -4.893831 1.597860 -0.276739 -10.280607 5.231004 -73.437801 -68.651330 57.371327 -31.725322 12.926577 13.734209 -8.824841 -59.396617 4.217532 -37.428791 67.726832 -35.973520 25.732900 40.325932 15.101449 0.007514 -0.002411 0.003329 -11.996377 -48.734805 -5.373024 15.498181 70.532721 6.883956 0.603352 8.094550 5.554397 0.000840 0.001317 0.000372
-23.197100 126.421121 58.756069 -174.553439 -28.064719 -1.725797 -1.069876 21.229453 -0.034403 -0.138984 2.805713 0.018464 -0.226469 4.577907 0.026694 -0.907513 18.109280 -0.002131 0.586355 16.587442 0.473801 0.519852 -8.304345 0.290512 -7.603426 -5.099127 -0.189201 1.006898 -5.221028 -1.695599 94.740659 -65.952586 -66.685227 2.292770 10.668021 -33.208240 -5.072314 -5.022445 1.635886 -0.263293 -10.246390 5.234198 -73.101124 -68.659207 57.038593 -31.747330 12.896282 13.751715 -8.876360 -59.397769 4.267654 -37.413568 67.725091 -35.969696 25.662205 40.301920 15.069001 0.002537 -0.004417 0.001124 -12.022093 -48.750085 -5.354451 15.481285 70.540215 6.873266 0.607474 8.091058 5.549557 0.000174 0.003999 0.000077
